<svg width="33" height="31" viewBox="0 0 33 31" fill="none" xmlns="http://www.w3.org/2000/svg">
<g clip-path="url(#clip0_30_2)">
<mask id="mask0_30_2" style="mask-type:luminance" maskUnits="userSpaceOnUse" x="0" y="1" width="33" height="29">
<path d="M32.5789 1H0V29.7752H32.5789V1Z" fill="white"/>
</mask>
<g mask="url(#mask0_30_2)">
<path fill-rule="evenodd" clip-rule="evenodd" d="M11.9695 3.55847C11.9278 3.59567 11.8537 3.57827 11.812 3.61527C11.7624 3.65937 11.7824 3.67577 11.2769 4.24677C9.09853 6.70747 8.94132 9.74277 8.91457 10.259C8.74057 13.6197 10.4355 16.217 10.8265 16.734C11.0261 16.9979 11.0088 17.0057 11.0309 17.0233C11.1364 17.1079 11.2626 17.1644 11.3681 17.249C11.2827 18.9257 11.4715 24.1083 11.2346 25.2018C9.9798 30.9943 1.5811 31.2006 0.158743 25.2232C-0.106983 24.1066 0.0467351 21.25 0.022971 9.59717C0.0191488 7.73427 -0.335652 4.69967 2.79988 2.39487C4.59498 1.07537 8.54381 0.250074 11.635 3.29327C11.788 3.44397 11.7922 3.43397 11.9695 3.55847Z" fill="#F5C040"/>
<path fill-rule="evenodd" clip-rule="evenodd" d="M11.9692 3.55867C12.8749 2.89407 13.9525 1.87617 16.6292 1.28107C19.7559 0.585774 23.6667 1.18077 26.4723 3.05947C26.5569 3.11607 31.9163 6.12637 32.4215 13.4194C32.423 13.4412 32.5107 15.4635 32.429 16.4112C32.3191 16.3913 32.2094 16.3713 32.0998 16.3516C31.78 15.9683 30.0034 13.8384 26.6039 13.4022C23.8242 13.0455 21.6605 14.5897 21.0493 14.9465C21.0446 14.9372 20.0062 12.2763 16.799 12.0541C15.7283 11.9798 14.9055 12.2917 14.8229 12.3163C14.7709 12.2228 14.6519 12.1789 14.5999 12.0855C14.5422 11.9816 14.6955 11.968 14.5633 10.6012C14.4093 9.00827 14.2765 5.99167 11.9692 3.55867Z" fill="#399ACE"/>
<path fill-rule="evenodd" clip-rule="evenodd" d="M32.0999 16.3515C32.2096 16.3713 32.3193 16.3913 32.4291 16.4112C32.4515 16.8807 32.5634 24.26 32.4047 25.0499C31.3727 30.1832 25.1864 31.1351 22.5108 27.3319C21.3103 25.6255 21.5201 23.8334 21.552 21.2405C21.7766 21.2958 22.9534 21.5855 24.4401 21.3841C26.6649 21.0826 28.5158 19.918 29.0564 19.5155C29.3381 19.3058 30.855 18.1762 32.0999 16.3515Z" fill="#E46F54"/>
<path fill-rule="evenodd" clip-rule="evenodd" d="M21.0493 14.9465C21.6605 14.5897 23.8242 13.0456 26.604 13.4022C30.0034 13.8384 31.7801 15.9684 32.0998 16.3516C30.8549 18.1763 29.338 19.3058 29.0563 19.5155C28.5157 19.918 26.6648 21.0826 24.4399 21.3841C22.9533 21.5855 21.7765 21.2959 21.5519 21.2405C21.5148 16.5942 21.6986 16.5419 21.0493 14.9465Z" fill="#80527F"/>
<path fill-rule="evenodd" clip-rule="evenodd" d="M11.9693 3.55859C14.2766 5.99169 14.4093 9.0082 14.5634 10.6011C14.6955 11.9679 14.5423 11.9815 14.5999 12.0854C14.652 12.1788 14.771 12.2227 14.823 12.3162C11.9399 13.4572 11.504 15.7431 11.3679 17.249C11.2623 17.1644 11.1362 17.1079 11.0307 17.0234C11.0086 17.0057 11.0259 16.9979 10.8263 16.734C10.4353 16.217 8.74035 13.6198 8.91435 10.2591C8.9411 9.74289 9.09831 6.70759 11.2766 4.24689C11.7822 3.67589 11.7622 3.65949 11.8117 3.61539C11.8535 3.57839 11.9276 3.59579 11.9693 3.55859Z" fill="#7BA743"/>
</g>
</g>
<defs>
<clipPath id="clip0_30_2">
<rect width="32.5789" height="30.7752" fill="white"/>
</clipPath>
</defs>
</svg>
