<svg width="148" height="47" viewBox="0 0 148 47" fill="none" xmlns="http://www.w3.org/2000/svg">
<g clip-path="url(#clip0_30_48)">
<path fill-rule="evenodd" clip-rule="evenodd" d="M11.9695 19.7678C11.9278 19.805 11.8537 19.7876 11.812 19.8246C11.7624 19.8687 11.7824 19.8851 11.2769 20.4561C9.09853 22.9168 8.94132 25.9521 8.91457 26.4683C8.74057 29.829 10.4355 32.4263 10.8265 32.9433C11.0261 33.2072 11.0088 33.215 11.0309 33.2326C11.1364 33.3172 11.2626 33.3737 11.3681 33.4583C11.2827 35.135 11.4715 40.3176 11.2346 41.4111C9.9798 47.2036 1.5811 47.4099 0.158743 41.4325C-0.106983 40.3159 0.0467353 37.4593 0.0229712 25.8066C0.019149 23.9436 -0.335652 20.909 2.79988 18.6042C4.59498 17.2847 8.54381 16.4595 11.635 19.5026C11.788 19.6533 11.7922 19.6433 11.9695 19.7678Z" fill="white"/>
<path fill-rule="evenodd" clip-rule="evenodd" d="M11.9692 19.7678C12.8749 19.1032 13.9525 18.0854 16.6292 17.4903C19.7559 16.795 23.6667 17.3899 26.4723 19.2686C26.5569 19.3252 31.9163 22.3355 32.4215 29.6286C32.423 29.6503 32.5107 31.6726 32.429 32.6203C32.3191 32.6004 32.2094 32.5805 32.0998 32.5607C31.78 32.1775 30.0034 30.0475 26.6039 29.6113C23.8242 29.2547 21.6605 30.7988 21.0493 31.1556C21.0446 31.1463 20.0062 28.4854 16.799 28.2632C15.7283 28.1889 14.9055 28.5008 14.8229 28.5254C14.7709 28.4319 14.6519 28.388 14.5999 28.2946C14.5422 28.1907 14.6955 28.1771 14.5633 26.8103C14.4093 25.2174 14.2765 22.2009 11.9692 19.7678Z" fill="white"/>
<path fill-rule="evenodd" clip-rule="evenodd" d="M32.0999 32.5607C32.2096 32.5804 32.3193 32.6004 32.4291 32.6203C32.4515 33.0898 32.5634 40.4691 32.4047 41.259C31.3727 46.3924 25.1864 47.3443 22.5108 43.541C21.3103 41.8346 21.5201 40.0425 21.552 37.4496C21.7766 37.5049 22.9534 37.7946 24.4401 37.5932C26.6649 37.2917 28.5158 36.1271 29.0564 35.7246C29.3381 35.5149 30.855 34.3854 32.0999 32.5607Z" fill="white"/>
<path fill-rule="evenodd" clip-rule="evenodd" d="M21.0493 31.1555C21.6605 30.7987 23.8242 29.2546 26.604 29.6112C30.0034 30.0474 31.7801 32.1774 32.0998 32.5606C30.8549 34.3853 29.338 35.5148 29.0563 35.7245C28.5157 36.127 26.6648 37.2916 24.4399 37.5931C22.9533 37.7945 21.7765 37.5049 21.5519 37.4495C21.5148 32.8032 21.6986 32.7509 21.0493 31.1555Z" fill="white"/>
<path fill-rule="evenodd" clip-rule="evenodd" d="M11.9693 19.7676C14.2766 22.2007 14.4093 25.2173 14.5634 26.8101C14.6955 28.177 14.5423 28.1906 14.5999 28.2945C14.652 28.3879 14.771 28.4317 14.823 28.5253C11.9399 29.6663 11.504 31.9521 11.3679 33.4581C11.2623 33.3735 11.1362 33.317 11.0307 33.2324C11.0086 33.2148 11.0259 33.207 10.8263 32.9431C10.4353 32.4261 8.74035 29.8288 8.91435 26.4681C8.9411 25.952 9.09831 22.9166 11.2766 20.456C11.7822 19.885 11.7622 19.8685 11.8117 19.8245C11.8535 19.7874 11.9276 19.8049 11.9693 19.7676Z" fill="white"/>
</g>
<path d="M51.2665 46.3308C48.463 46.3308 46.006 45.7795 43.8955 44.677C41.8165 43.543 40.1942 41.9995 39.0287 40.0465C37.8947 38.0935 37.3277 35.8727 37.3277 33.3842C37.3277 30.8642 37.879 28.6435 38.9815 26.722C40.1155 24.769 41.659 23.2412 43.612 22.1388C45.5965 21.0362 47.8487 20.485 50.3687 20.485C52.8257 20.485 55.015 21.0205 56.9365 22.0915C58.858 23.1625 60.37 24.6745 61.4725 26.6275C62.575 28.5805 63.1262 30.88 63.1262 33.526C63.1262 33.778 63.1105 34.0615 63.079 34.3765C63.079 34.6915 63.0632 34.9907 63.0317 35.2742H42.0055V31.3525H59.9132L57.598 32.581C57.6295 31.132 57.3302 29.8562 56.7002 28.7537C56.0702 27.6512 55.204 26.785 54.1015 26.155C53.0305 25.525 51.7862 25.21 50.3687 25.21C48.9197 25.21 47.644 25.525 46.5415 26.155C45.4705 26.785 44.62 27.667 43.99 28.801C43.3915 29.9035 43.0922 31.2107 43.0922 32.7227V33.6677C43.0922 35.1797 43.4387 36.5185 44.1317 37.684C44.8247 38.8495 45.8012 39.7472 47.0612 40.3772C48.3212 41.0072 49.7702 41.3222 51.4082 41.3222C52.8257 41.3222 54.1015 41.1017 55.2355 40.6607C56.3695 40.2197 57.3775 39.5267 58.2595 38.5817L61.4252 42.22C60.2912 43.543 58.858 44.5667 57.1255 45.2912C55.4245 45.9842 53.4715 46.3308 51.2665 46.3308ZM64.6582 46L75.7619 31.5415L75.6674 34.7072L65.0834 20.7685H71.6512L79.0694 30.691H76.5652L84.0307 20.7685H90.4094L79.7309 34.7072L79.7782 31.5415L90.8347 46H84.1724L76.3762 35.4632L78.8332 35.794L71.1787 46H64.6582ZM105.41 46.3308C103.268 46.3308 101.378 45.937 99.7402 45.1495C98.1022 44.3305 96.8264 43.102 95.9129 41.464C94.9994 39.7945 94.5427 37.6997 94.5427 35.1797V20.7685H100.449V34.3765C100.449 36.6445 100.953 38.3455 101.961 39.4795C103 40.582 104.465 41.1332 106.355 41.1332C107.741 41.1332 108.938 40.8497 109.946 40.2827C110.986 39.7157 111.789 38.8652 112.356 37.7312C112.954 36.5972 113.254 35.1955 113.254 33.526V20.7685H119.16V46H113.537V39.196L114.529 41.275C113.679 42.913 112.435 44.173 110.797 45.055C109.159 45.9055 107.363 46.3308 105.41 46.3308ZM134.689 46.3308C132.579 46.3308 130.547 46.063 128.594 45.5275C126.673 44.9605 125.145 44.2832 124.011 43.4957L126.279 39.007C127.413 39.7315 128.767 40.33 130.342 40.8025C131.917 41.275 133.492 41.5112 135.067 41.5112C136.926 41.5112 138.265 41.2592 139.084 40.7552C139.934 40.2512 140.359 39.574 140.359 38.7235C140.359 38.0305 140.076 37.5107 139.509 37.1642C138.942 36.7862 138.202 36.5027 137.288 36.3137C136.375 36.1247 135.351 35.9515 134.217 35.794C133.114 35.6365 131.996 35.4317 130.862 35.1797C129.76 34.8962 128.752 34.5025 127.838 33.9985C126.925 33.463 126.184 32.7542 125.617 31.8722C125.05 30.9902 124.767 29.8247 124.767 28.3757C124.767 26.7692 125.224 25.3832 126.137 24.2177C127.051 23.0207 128.326 22.1072 129.964 21.4772C131.634 20.8157 133.603 20.485 135.871 20.485C137.572 20.485 139.288 20.674 141.021 21.052C142.753 21.43 144.187 21.9655 145.321 22.6585L143.053 27.1472C141.856 26.4227 140.643 25.9345 139.414 25.6825C138.217 25.399 137.02 25.2572 135.823 25.2572C134.028 25.2572 132.689 25.525 131.807 26.0605C130.957 26.596 130.531 27.2732 130.531 28.0922C130.531 28.8482 130.815 29.4152 131.382 29.7932C131.949 30.1712 132.689 30.4705 133.603 30.691C134.516 30.9115 135.524 31.1005 136.627 31.258C137.761 31.384 138.879 31.5887 139.981 31.8722C141.084 32.1557 142.092 32.5495 143.005 33.0535C143.95 33.526 144.706 34.2032 145.273 35.0852C145.84 35.9672 146.124 37.117 146.124 38.5345C146.124 40.1095 145.651 41.4797 144.706 42.6452C143.793 43.8107 142.486 44.7242 140.785 45.3857C139.084 46.0158 137.052 46.3308 134.689 46.3308Z" fill="white"/>
<defs>
<clipPath id="clip0_30_48">
<rect width="32.5789" height="28.7752" fill="white" transform="translate(0 17.2092)"/>
</clipPath>
</defs>
</svg>
