<svg width="24" height="24" viewBox="0 0 24 24" fill="none" xmlns="http://www.w3.org/2000/svg">
<path d="M8.69211 11.2329V7.49789C8.69211 7.27523 8.77077 7.08523 8.92811 6.92789C9.08477 6.77056 9.27544 6.69189 9.50011 6.69189C9.72477 6.69189 9.91544 6.77056 10.0721 6.92789C10.2294 7.08523 10.3081 7.27523 10.3081 7.49789V11.2329C10.3081 11.4556 10.2294 11.6456 10.0721 11.8029C9.91477 11.9602 9.72411 12.0389 9.50011 12.0389C9.27611 12.0389 9.08544 11.9602 8.92811 11.8029C8.77077 11.6456 8.69211 11.4556 8.69211 11.2329ZM13.0391 12.5439V3.49989C13.0391 3.27589 13.1174 3.08523 13.2741 2.92789C13.4314 2.77056 13.6221 2.69189 13.8461 2.69189C14.0708 2.69189 14.2614 2.77056 14.4181 2.92789C14.5754 3.08523 14.6541 3.27589 14.6541 3.49989V12.5439C14.6541 12.8132 14.5714 13.0152 14.4061 13.1499C14.2401 13.2846 14.0544 13.3519 13.8491 13.3519C13.6438 13.3519 13.4571 13.2846 13.2891 13.1499C13.1211 13.0152 13.0378 12.8132 13.0391 12.5439ZM4.30811 14.6859V11.4999C4.30811 11.2759 4.38644 11.0852 4.54311 10.9279C4.70044 10.7706 4.89144 10.6919 5.11611 10.6919C5.34077 10.6919 5.53144 10.7706 5.68811 10.9279C5.84477 11.0852 5.92311 11.2759 5.92311 11.4999V14.6869C5.92311 14.9562 5.84044 15.1579 5.67511 15.2919C5.50977 15.4266 5.32411 15.4939 5.11811 15.4939C4.91277 15.4939 4.72611 15.4266 4.55811 15.2919C4.39144 15.1579 4.30811 14.9562 4.30811 14.6869M5.39311 20.5499C5.16977 20.5499 5.01544 20.4482 4.93011 20.2449C4.84477 20.0422 4.88344 19.8592 5.04611 19.6959L8.95411 15.7889C9.09877 15.6436 9.27711 15.5626 9.48911 15.5459C9.70111 15.5292 9.88944 15.5936 10.0541 15.7389L13.0391 18.3039L19.7921 11.5499H18.0001C17.8581 11.5499 17.7394 11.5019 17.6441 11.4059C17.5488 11.3099 17.5008 11.1909 17.5001 11.0489C17.4994 10.9069 17.5474 10.7882 17.6441 10.6929C17.7408 10.5976 17.8594 10.5499 18.0001 10.5499H20.6921C20.9214 10.5499 21.1134 10.6272 21.2681 10.7819C21.4228 10.9366 21.5001 11.1286 21.5001 11.3579V14.0499C21.5001 14.1919 21.4521 14.3106 21.3561 14.4059C21.2601 14.5012 21.1411 14.5492 20.9991 14.5499C20.8571 14.5506 20.7384 14.5026 20.6431 14.4059C20.5478 14.3092 20.5001 14.1906 20.5001 14.0499V12.2579L13.5961 19.1619C13.4514 19.3066 13.2731 19.3872 13.0611 19.4039C12.8491 19.4206 12.6608 19.3562 12.4961 19.2109L9.51111 16.6459L5.75411 20.4039C5.71144 20.4439 5.65777 20.4782 5.59311 20.5069C5.52844 20.5356 5.46177 20.5499 5.39311 20.5499Z" fill="#7D7D7D"/>
</svg>
