<svg width="32" height="28" viewBox="0 0 32 28" fill="none" xmlns="http://www.w3.org/2000/svg">
<path fill-rule="evenodd" clip-rule="evenodd" d="M11.7568 2.48982C11.7159 2.52605 11.6431 2.50907 11.6021 2.54513C11.5534 2.58798 11.573 2.60399 11.0765 3.15961C8.93687 5.55398 8.78245 8.50753 8.75617 9.00978C8.58527 12.28 10.2501 14.8072 10.6341 15.3103C10.8302 15.5671 10.8132 15.5747 10.8349 15.5918C10.9386 15.6741 11.0624 15.7291 11.1661 15.8114C11.0822 17.443 11.2676 22.486 11.035 23.55C9.80247 29.1864 1.55301 29.3872 0.155922 23.5709C-0.105082 22.4844 0.0459049 19.7047 0.0225631 8.36587C0.0188088 6.55316 -0.329688 3.60026 2.75013 1.35757C4.51334 0.0736266 8.39201 -0.729401 11.4282 2.23175C11.5786 2.37841 11.5827 2.36871 11.7568 2.48982Z" fill="white"/>
<path fill-rule="evenodd" clip-rule="evenodd" d="M11.7568 2.48975C12.6464 1.84309 13.7048 0.852644 16.334 0.273577C19.4051 -0.402998 23.2464 0.175905 26.0022 2.00398C26.0853 2.05913 31.3495 4.98826 31.8457 12.0849C31.8472 12.106 31.9333 14.0738 31.853 14.996C31.7451 14.9766 31.6374 14.9572 31.5297 14.938C31.2156 14.5651 29.4705 12.4925 26.1315 12.068C23.4012 11.721 21.2759 13.2236 20.6755 13.5708C20.671 13.5617 19.651 10.9725 16.5008 10.7563C15.4491 10.684 14.6409 10.9875 14.5598 11.0115C14.5087 10.9204 14.3919 10.8777 14.3408 10.7868C14.2841 10.6858 14.4346 10.6725 14.3048 9.3425C14.1535 7.79255 14.0231 4.85727 11.7568 2.48975Z" fill="white"/>
<path fill-rule="evenodd" clip-rule="evenodd" d="M31.5296 14.938C31.6373 14.9572 31.745 14.9766 31.8529 14.996C31.875 15.4529 31.9848 22.6334 31.8289 23.402C30.8153 28.397 24.7389 29.3233 22.1109 25.6225C20.9317 23.9621 21.1377 22.2183 21.169 19.6952C21.3897 19.749 22.5456 20.0309 24.0058 19.8349C26.1911 19.5416 28.0092 18.4083 28.5402 18.0167C28.8168 17.8126 30.3068 16.7135 31.5296 14.938Z" fill="white"/>
<path fill-rule="evenodd" clip-rule="evenodd" d="M20.6753 13.5705C21.2757 13.2233 23.4009 11.7207 26.1312 12.0678C29.4703 12.4922 31.2154 14.5648 31.5294 14.9377C30.3067 16.7132 28.8167 17.8123 28.54 18.0164C28.009 18.4081 26.191 19.5413 24.0057 19.8346C22.5454 20.0306 21.3896 19.7488 21.1689 19.6949C21.1325 15.1738 21.313 15.1229 20.6753 13.5705Z" fill="white"/>
<path fill-rule="evenodd" clip-rule="evenodd" d="M11.7566 2.48975C14.0229 4.85727 14.1533 7.79255 14.3046 9.3425C14.4344 10.6725 14.2839 10.6858 14.3405 10.7868C14.3916 10.8777 14.5085 10.9204 14.5596 11.0115C11.7277 12.1217 11.2995 14.346 11.1658 15.8114C11.0622 15.729 10.9383 15.6741 10.8347 15.5918C10.8129 15.5746 10.8299 15.567 10.6339 15.3102C10.2498 14.8072 8.58502 12.2799 8.75592 9.00971C8.7822 8.50745 8.93662 5.5539 11.0762 3.15953C11.5728 2.60391 11.5532 2.5879 11.6018 2.54505C11.6428 2.50899 11.7156 2.52597 11.7566 2.48975Z" fill="white"/>
</svg>
